<svg xmlns="http://www.w3.org/2000/svg" viewBox="0 0 200 200" fill="none">
  <!-- Outer petals -->
  <g opacity="0.95">
    <ellipse cx="100" cy="38" rx="18" ry="30" fill="#e8871e" transform="rotate(0 100 100)"/>
    <ellipse cx="100" cy="38" rx="18" ry="30" fill="#f09828" transform="rotate(30 100 100)"/>
    <ellipse cx="100" cy="38" rx="18" ry="30" fill="#e8871e" transform="rotate(60 100 100)"/>
    <ellipse cx="100" cy="38" rx="18" ry="30" fill="#f09828" transform="rotate(90 100 100)"/>
    <ellipse cx="100" cy="38" rx="18" ry="30" fill="#e8871e" transform="rotate(120 100 100)"/>
    <ellipse cx="100" cy="38" rx="18" ry="30" fill="#f09828" transform="rotate(150 100 100)"/>
    <ellipse cx="100" cy="38" rx="18" ry="30" fill="#e8871e" transform="rotate(180 100 100)"/>
    <ellipse cx="100" cy="38" rx="18" ry="30" fill="#f09828" transform="rotate(210 100 100)"/>
    <ellipse cx="100" cy="38" rx="18" ry="30" fill="#e8871e" transform="rotate(240 100 100)"/>
    <ellipse cx="100" cy="38" rx="18" ry="30" fill="#f09828" transform="rotate(270 100 100)"/>
    <ellipse cx="100" cy="38" rx="18" ry="30" fill="#e8871e" transform="rotate(300 100 100)"/>
    <ellipse cx="100" cy="38" rx="18" ry="30" fill="#f09828" transform="rotate(330 100 100)"/>
  </g>
  <!-- Middle petals -->
  <g opacity="0.95">
    <ellipse cx="100" cy="52" rx="14" ry="24" fill="#f0a030" transform="rotate(15 100 100)"/>
    <ellipse cx="100" cy="52" rx="14" ry="24" fill="#e89020" transform="rotate(45 100 100)"/>
    <ellipse cx="100" cy="52" rx="14" ry="24" fill="#f0a030" transform="rotate(75 100 100)"/>
    <ellipse cx="100" cy="52" rx="14" ry="24" fill="#e89020" transform="rotate(105 100 100)"/>
    <ellipse cx="100" cy="52" rx="14" ry="24" fill="#f0a030" transform="rotate(135 100 100)"/>
    <ellipse cx="100" cy="52" rx="14" ry="24" fill="#e89020" transform="rotate(165 100 100)"/>
    <ellipse cx="100" cy="52" rx="14" ry="24" fill="#f0a030" transform="rotate(195 100 100)"/>
    <ellipse cx="100" cy="52" rx="14" ry="24" fill="#e89020" transform="rotate(225 100 100)"/>
    <ellipse cx="100" cy="52" rx="14" ry="24" fill="#f0a030" transform="rotate(255 100 100)"/>
    <ellipse cx="100" cy="52" rx="14" ry="24" fill="#e89020" transform="rotate(285 100 100)"/>
    <ellipse cx="100" cy="52" rx="14" ry="24" fill="#f0a030" transform="rotate(315 100 100)"/>
    <ellipse cx="100" cy="52" rx="14" ry="24" fill="#e89020" transform="rotate(345 100 100)"/>
  </g>
  <!-- Inner petals -->
  <g opacity="0.9">
    <ellipse cx="100" cy="65" rx="10" ry="18" fill="#d47818" transform="rotate(0 100 100)"/>
    <ellipse cx="100" cy="65" rx="10" ry="18" fill="#c46810" transform="rotate(36 100 100)"/>
    <ellipse cx="100" cy="65" rx="10" ry="18" fill="#d47818" transform="rotate(72 100 100)"/>
    <ellipse cx="100" cy="65" rx="10" ry="18" fill="#c46810" transform="rotate(108 100 100)"/>
    <ellipse cx="100" cy="65" rx="10" ry="18" fill="#d47818" transform="rotate(144 100 100)"/>
    <ellipse cx="100" cy="65" rx="10" ry="18" fill="#c46810" transform="rotate(180 100 100)"/>
    <ellipse cx="100" cy="65" rx="10" ry="18" fill="#d47818" transform="rotate(216 100 100)"/>
    <ellipse cx="100" cy="65" rx="10" ry="18" fill="#c46810" transform="rotate(252 100 100)"/>
    <ellipse cx="100" cy="65" rx="10" ry="18" fill="#d47818" transform="rotate(288 100 100)"/>
    <ellipse cx="100" cy="65" rx="10" ry="18" fill="#c46810" transform="rotate(324 100 100)"/>
  </g>
  <!-- Center -->
  <circle cx="100" cy="100" r="16" fill="#c46010"/>
  <circle cx="100" cy="100" r="11" fill="#b05008"/>
</svg>